<svg xmlns="http://www.w3.org/2000/svg" xmlns:xlink="http://www.w3.org/1999/xlink" xml:space="preserve" class="main-svg" width="1368" height="777"><rect x="0" y="0" width="1368" height="777" style="fill: rgb(255, 255, 255); fill-opacity: 1;"/><defs id="defs-46413e"><g class="clips"><clipPath class="axesclip" id="clip46413ex"><rect x="80" y="0" width="1170" height="777"/></clipPath><clipPath class="axesclip" id="clip46413ey"><rect x="0" y="100" width="1368" height="597"/></clipPath><clipPath class="axesclip" id="clip46413exy"><rect x="80" y="100" width="1170" height="597"/></clipPath></g></defs><g class="draglayer"><g transform="translate(80,100)"/></g><g class="subplot xy"><rect x="80" y="100" width="1170" height="597" style="stroke-width: 0px; fill: rgb(255, 255, 255); fill-opacity: 1;"/><g transform="translate(80,100)"><path class="ygrid crisp" d="M0,0h1170" transform="translate(0,477.6)" style="stroke: rgb(238, 238, 238); stroke-opacity: 1; stroke-width: 1px;"/><path class="ygrid crisp" d="M0,0h1170" transform="translate(0,358.2)" style="stroke: rgb(238, 238, 238); stroke-opacity: 1; stroke-width: 1px;"/><path class="ygrid crisp" d="M0,0h1170" transform="translate(0,238.8)" style="stroke: rgb(238, 238, 238); stroke-opacity: 1; stroke-width: 1px;"/><path class="ygrid crisp" d="M0,0h1170" transform="translate(0,119.4)" style="stroke: rgb(238, 238, 238); stroke-opacity: 1; stroke-width: 1px;"/></g><g/><g transform="translate(80,100)"><path class="yzl zl crisp" d="M0,0h1170" transform="translate(0,597)" style="stroke: rgb(68, 68, 68); stroke-opacity: 1; stroke-width: 1px;"/></g><g/><svg preserveAspectRatio="none" x="80" y="100" width="1170" height="597" viewBox="0 0 1170 597" style="fill: none;"><g class="maplayer"/><g class="barlayer"><g class="trace bars" style="opacity: 1;"><g class="points"><path d="M99,597V511.51H135V597Z" style="stroke-width: 0px; fill: rgb(31, 119, 180); fill-opacity: 1;"/><path d="M189,597V527.27H225V597Z" style="stroke-width: 0px; fill: rgb(31, 119, 180); fill-opacity: 1;"/><path d="M279,597V555.93H315V597Z" style="stroke-width: 0px; fill: rgb(31, 119, 180); fill-opacity: 1;"/><path d="M369,597V572.88H405V597Z" style="stroke-width: 0px; fill: rgb(31, 119, 180); fill-opacity: 1;"/><path d="M459,597V579.81H495V597Z" style="stroke-width: 0px; fill: rgb(31, 119, 180); fill-opacity: 1;"/><path d="M549,597V587.45H585V597Z" style="stroke-width: 0px; fill: rgb(31, 119, 180); fill-opacity: 1;"/><path d="M639,597V588.16H675V597Z" style="stroke-width: 0px; fill: rgb(31, 119, 180); fill-opacity: 1;"/><path d="M729,597V584.34H765V597Z" style="stroke-width: 0px; fill: rgb(31, 119, 180); fill-opacity: 1;"/><path d="M819,597V585.54H855V597Z" style="stroke-width: 0px; fill: rgb(31, 119, 180); fill-opacity: 1;"/><path d="M909,597V581.96H945V597Z" style="stroke-width: 0px; fill: rgb(31, 119, 180); fill-opacity: 1;"/><path d="M999,597V580.28H1035V597Z" style="stroke-width: 0px; fill: rgb(31, 119, 180); fill-opacity: 1;"/><path d="M1089,597V30.33H1125V597Z" style="stroke-width: 0px; fill: rgb(31, 119, 180); fill-opacity: 1;"/></g></g><g class="trace bars" style="opacity: 1;"><g class="points"><path d="M135,597V540.88H171V597Z" style="stroke-width: 0px; fill: rgb(255, 127, 14); fill-opacity: 1;"/><path d="M225,597V541.12H261V597Z" style="stroke-width: 0px; fill: rgb(255, 127, 14); fill-opacity: 1;"/><path d="M315,597V562.37H351V597Z" style="stroke-width: 0px; fill: rgb(255, 127, 14); fill-opacity: 1;"/><path d="M405,597V569.78H441V597Z" style="stroke-width: 0px; fill: rgb(255, 127, 14); fill-opacity: 1;"/><path d="M495,597V581.24H531V597Z" style="stroke-width: 0px; fill: rgb(255, 127, 14); fill-opacity: 1;"/><path d="M585,597V588.64H621V597Z" style="stroke-width: 0px; fill: rgb(255, 127, 14); fill-opacity: 1;"/><path d="M675,597V589.36H711V597Z" style="stroke-width: 0px; fill: rgb(255, 127, 14); fill-opacity: 1;"/><path d="M765,597V588.64H801V597Z" style="stroke-width: 0px; fill: rgb(255, 127, 14); fill-opacity: 1;"/><path d="M855,597V585.3H891V597Z" style="stroke-width: 0px; fill: rgb(255, 127, 14); fill-opacity: 1;"/><path d="M945,597V583.63H981V597Z" style="stroke-width: 0px; fill: rgb(255, 127, 14); fill-opacity: 1;"/><path d="M1035,597V584.82H1071V597Z" style="stroke-width: 0px; fill: rgb(255, 127, 14); fill-opacity: 1;"/><path d="M1125,597V183.16H1161V597Z" style="stroke-width: 0px; fill: rgb(255, 127, 14); fill-opacity: 1;"/></g></g></g><g class="errorlayer"><g class="errorbars"/><g class="errorbars"/></g><g class="boxlayer"/><g class="scatterlayer"/></svg><g/><path class="crisp" transform="translate(80,100)" d="M-1,597.5h1172" style="fill: none; stroke-width: 1px; stroke: rgb(0, 0, 0); stroke-opacity: 0;"/><path class="crisp" transform="translate(80,100)" d="M-0.5,-1v598" stroke-width="1px" style="fill: none; stroke: rgb(0, 0, 0); stroke-opacity: 0;"/><g/><g transform="translate(80,100)"><g class="xtick" data-bb="706"><text text-anchor="middle" x="0" y="611" transform="translate(45,0)" style="font-family: 'Open sans', verdana, arial, sans-serif; font-size: 12px; fill: rgb(68, 68, 68); fill-opacity: 1; visibility: visible;" data-bb="692">0-5</text></g><g class="xtick" data-bb="707"><text text-anchor="middle" x="0" y="611" transform="translate(135,0)" style="font-family: 'Open sans', verdana, arial, sans-serif; font-size: 12px; fill: rgb(68, 68, 68); fill-opacity: 1; visibility: visible;" data-bb="693">5-10</text></g><g class="xtick" data-bb="708"><text text-anchor="middle" x="0" y="611" transform="translate(225,0)" style="font-family: 'Open sans', verdana, arial, sans-serif; font-size: 12px; fill: rgb(68, 68, 68); fill-opacity: 1; visibility: visible;" data-bb="694">10-15</text></g><g class="xtick" data-bb="709"><text text-anchor="middle" x="0" y="611" transform="translate(315,0)" style="font-family: 'Open sans', verdana, arial, sans-serif; font-size: 12px; fill: rgb(68, 68, 68); fill-opacity: 1; visibility: visible;" data-bb="695">15-20</text></g><g class="xtick" data-bb="710"><text text-anchor="middle" x="0" y="611" transform="translate(405,0)" style="font-family: 'Open sans', verdana, arial, sans-serif; font-size: 12px; fill: rgb(68, 68, 68); fill-opacity: 1; visibility: visible;" data-bb="696">20-25</text></g><g class="xtick" data-bb="711"><text text-anchor="middle" x="0" y="611" transform="translate(495,0)" style="font-family: 'Open sans', verdana, arial, sans-serif; font-size: 12px; fill: rgb(68, 68, 68); fill-opacity: 1; visibility: visible;" data-bb="697">25-30</text></g><g class="xtick" data-bb="712"><text text-anchor="middle" x="0" y="611" transform="translate(585,0)" style="font-family: 'Open sans', verdana, arial, sans-serif; font-size: 12px; fill: rgb(68, 68, 68); fill-opacity: 1; visibility: visible;" data-bb="698">30-35</text></g><g class="xtick" data-bb="713"><text text-anchor="middle" x="0" y="611" transform="translate(675,0)" style="font-family: 'Open sans', verdana, arial, sans-serif; font-size: 12px; fill: rgb(68, 68, 68); fill-opacity: 1; visibility: visible;" data-bb="699">35-40</text></g><g class="xtick" data-bb="714"><text text-anchor="middle" x="0" y="611" transform="translate(765,0)" style="font-family: 'Open sans', verdana, arial, sans-serif; font-size: 12px; fill: rgb(68, 68, 68); fill-opacity: 1; visibility: visible;" data-bb="700">40-45</text></g><g class="xtick" data-bb="715"><text text-anchor="middle" x="0" y="611" transform="translate(855,0)" style="font-family: 'Open sans', verdana, arial, sans-serif; font-size: 12px; fill: rgb(68, 68, 68); fill-opacity: 1; visibility: visible;" data-bb="701">45-50</text></g><g class="xtick" data-bb="716"><text text-anchor="middle" x="0" y="611" transform="translate(945,0)" style="font-family: 'Open sans', verdana, arial, sans-serif; font-size: 12px; fill: rgb(68, 68, 68); fill-opacity: 1; visibility: visible;" data-bb="702">50-55</text></g><g class="xtick" data-bb="717"><text text-anchor="middle" x="0" y="611" transform="translate(1035,0)" style="font-family: 'Open sans', verdana, arial, sans-serif; font-size: 12px; fill: rgb(68, 68, 68); fill-opacity: 1; visibility: visible;" data-bb="703">55-60</text></g><g class="xtick" data-bb="718"><text text-anchor="middle" x="0" y="611" transform="translate(1125,0)" style="font-family: 'Open sans', verdana, arial, sans-serif; font-size: 12px; fill: rgb(68, 68, 68); fill-opacity: 1; visibility: visible;" data-bb="704">60+</text></g></g><g transform="translate(80,100)"><g class="ytick" data-bb="720"><text text-anchor="end" x="-2" y="6" transform="translate(0,597)" style="font-family: 'Open sans', verdana, arial, sans-serif; font-size: 12px; fill: rgb(68, 68, 68); fill-opacity: 1; visibility: visible;">0</text></g><g class="ytick" data-bb="721"><text text-anchor="end" x="-2" y="6" transform="translate(0,477.6)" style="font-family: 'Open sans', verdana, arial, sans-serif; font-size: 12px; fill: rgb(68, 68, 68); fill-opacity: 1; visibility: visible;">500</text></g><g class="ytick" data-bb="722"><text text-anchor="end" x="-2" y="6" transform="translate(0,358.2)" style="font-family: 'Open sans', verdana, arial, sans-serif; font-size: 12px; fill: rgb(68, 68, 68); fill-opacity: 1; visibility: visible;">1000</text></g><g class="ytick" data-bb="723"><text text-anchor="end" x="-2" y="6" transform="translate(0,238.8)" style="font-family: 'Open sans', verdana, arial, sans-serif; font-size: 12px; fill: rgb(68, 68, 68); fill-opacity: 1; visibility: visible;">1500</text></g><g class="ytick" data-bb="724"><text text-anchor="end" x="-2" y="6" transform="translate(0,119.4)" style="font-family: 'Open sans', verdana, arial, sans-serif; font-size: 12px; fill: rgb(68, 68, 68); fill-opacity: 1; visibility: visible;">2000</text></g><g class="ytick" data-bb="725"><text text-anchor="end" x="-2" y="6" transform="translate(0,0)" style="font-family: 'Open sans', verdana, arial, sans-serif; font-size: 12px; fill: rgb(68, 68, 68); fill-opacity: 1; visibility: visible;">2500</text></g></g><g/></g><g class="shapelayer"/><g class="infolayer"><g class="g-gtitle"/><g class="g-xtitle" data-bb="705"><text class="xtitle" x="665" y="749" text-anchor="middle" style="font-family: 'Open sans', verdana, arial, sans-serif; font-size: 14px; fill: rgb(68, 68, 68); opacity: 1; visibility: visible;">Minutes Since Last Loss</text></g><g class="g-ytitle" data-bb="719"><text class="ytitle" transform="rotate(-90,42,398.5) translate(0, 0)" x="42" y="398.5" text-anchor="middle" style="font-family: 'Open sans', verdana, arial, sans-serif; font-size: 14px; fill: rgb(68, 68, 68); opacity: 1; visibility: visible;">Count</text></g><svg class="legend" x="1273" y="100" width="83" height="48"><rect class="bg" x="0" y="0" width="83" height="48" style="stroke: rgb(68, 68, 68); stroke-opacity: 1; fill: rgb(255, 255, 255); fill-opacity: 1; stroke-width: 0px;"/><g class="traces" transform="translate(0,14.5)" style="opacity: 1;"><g class="legendfill"/><g class="legendlines"/><g class="legendsymbols" style="opacity: 1;"><g class="legendpoints"><path class="legendbar" d="M6,6H-6V-6H6Z" transform="translate(20,0)" style="stroke-width: 0px; fill: rgb(31, 119, 180); fill-opacity: 1;"/></g></g><text class="legendtext" x="40" y="4.680000000000001" style="text-anchor: start; font-family: 'Open sans', verdana, arial, sans-serif; font-size: 12px; fill: rgb(68, 68, 68); fill-opacity: 1; visibility: visible;" data-bb="690">Wins</text><rect class="legendtoggle" pointer-events="all" x="0" y="-9.5" height="19" style="cursor: pointer; fill: rgb(0, 0, 0); fill-opacity: 0;" width="77.390625"/></g><g class="traces" transform="translate(0,33.5)" style="opacity: 1;"><g class="legendfill"/><g class="legendlines"/><g class="legendsymbols" style="opacity: 1;"><g class="legendpoints"><path class="legendbar" d="M6,6H-6V-6H6Z" transform="translate(20,0)" style="stroke-width: 0px; fill: rgb(255, 127, 14); fill-opacity: 1;"/></g></g><text class="legendtext" x="40" y="4.680000000000001" style="text-anchor: start; font-family: 'Open sans', verdana, arial, sans-serif; font-size: 12px; fill: rgb(68, 68, 68); fill-opacity: 1; visibility: visible;" data-bb="691">Losses</text><rect class="legendtoggle" pointer-events="all" x="0" y="-9.5" height="19" width="77.390625" style="cursor: pointer; fill: rgb(0, 0, 0); fill-opacity: 0;"/></g></svg></g><g class="hoverlayer"/><text class="js-plot-link-container" y="768" text-anchor="end" x="1361" style="font-family: 'Open Sans', Arial, sans-serif; font-size: 12px; fill: rgb(68, 68, 68);"><tspan class="js-link-to-tool"/><tspan class="js-link-spacer"/><tspan class="js-sourcelinks"/></text></svg>